<?xml version="1.0" encoding="utf-8"?>
<!-- Generator: Adobe Illustrator 16.0.0, SVG Export Plug-In . SVG Version: 6.00 Build 0)  -->
<!DOCTYPE svg PUBLIC "-//W3C//DTD SVG 1.1//EN" "http://www.w3.org/Graphics/SVG/1.1/DTD/svg11.dtd">
<svg version="1.1" id="Layer_1" xmlns="http://www.w3.org/2000/svg" xmlns:xlink="http://www.w3.org/1999/xlink" x="0px" y="0px"
	 width="150.402px" height="142.424px" viewBox="0 0 150.402 142.424" enable-background="new 0 0 150.402 142.424"
	 xml:space="preserve">
<g opacity="0.95">
	<path fill="#001871" d="M72.106,50.506h-2.314v17.957h2.075c1.196,0,1.994-0.957,1.994-2.793V53.06
		C73.861,51.224,73.143,50.506,72.106,50.506z"/>
	<path fill="#001871" d="M71.866,73.571h-2.075v18.834h2.314c1.037,0,1.755-0.799,1.755-2.635V76.364
		C73.861,74.608,73.063,73.571,71.866,73.571z"/>
	<path fill="#001871" d="M78.539,107.302v-0.021c0-0.75-0.541-1.159-1.45-1.159H75.3v2.35h1.8
		C77.979,108.472,78.539,108.013,78.539,107.302z"/>
	<path fill="#001871" d="M34.914,50.505H32.52v20.032h2.395c1.038,0,1.676-0.798,1.676-2.554V53.059
		C36.59,51.223,35.952,50.505,34.914,50.505z"/>
	<path fill="#001871" d="M67.843,34.044c0.261-0.211,0.391-0.496,0.391-0.857v-0.02c0-0.381-0.127-0.669-0.381-0.867
		c-0.253-0.197-0.609-0.295-1.07-0.295h-1.79v2.354h1.801C67.232,34.359,67.582,34.254,67.843,34.044z"/>
	<path fill="#001871" d="M60.789,106.122h-1.43v2.52h1.43c0.929,0,1.509-0.521,1.509-1.25v-0.02
		C62.298,106.554,61.708,106.122,60.789,106.122z"/>
	<path fill="#001871" d="M46.62,110.04v0.021c0,0.588,0.489,1.02,1.17,1.02c0.479,0,0.919-0.23,1.318-0.611l-1.56-1.589
		C46.901,109.161,46.62,109.591,46.62,110.04z"/>
	<polygon fill="#001871" points="66.979,109.222 69.388,109.222 68.178,106.422 	"/>
	<path fill="#001871" d="M49.069,106.663v-0.02c0-0.472-0.328-0.791-0.799-0.791c-0.5,0-0.83,0.35-0.83,0.84v0.021
		c0,0.351,0.141,0.609,0.53,1.04C48.689,107.492,49.069,107.163,49.069,106.663z"/>
	<path fill="#001871" d="M112.138,107.302v-0.021c0-0.75-0.54-1.159-1.449-1.159H108.9v2.35h1.8
		C111.579,108.472,112.138,108.013,112.138,107.302z"/>
	<path fill="#001871" d="M127.678,0H22.724C10.194,0,0,10.194,0,22.724v96.975c0,12.53,10.193,22.725,22.725,22.725h104.954
		c12.529,0,22.724-10.194,22.725-22.725V22.724C150.403,10.194,140.208,0,127.678,0z M95.41,92.483v5.51H82.88V44.839h5.508v47.645
		H95.41L95.41,92.483z M82.857,30.897h1.218v5.876h3.671v1.109h-4.889V30.897z M75.455,30.848h1.138l3.072,7.033h-1.297
		l-0.708-1.686h-3.303l-0.719,1.686h-1.258L75.455,30.848z M55.093,30.897h5.167v1.107h-3.948v1.797h3.501v1.108h-3.501v1.864h4
		v1.109h-5.219V30.897z M45.216,30.897h1.137l3.732,4.83v-4.83h1.217v6.985h-1.025l-3.842-4.968v4.968h-1.219V30.897z
		 M36.537,30.897h5.168v1.107h-3.951v1.797h3.501v1.108h-3.501v1.864h4v1.109h-5.217V30.897z M26.411,34.409V34.39
		c0-0.486,0.088-0.948,0.266-1.388c0.179-0.438,0.428-0.822,0.748-1.151c0.321-0.329,0.703-0.591,1.146-0.784
		c0.442-0.192,0.926-0.289,1.451-0.289c0.307,0,0.584,0.022,0.833,0.065s0.479,0.105,0.693,0.184
		c0.213,0.08,0.413,0.179,0.604,0.295c0.189,0.116,0.374,0.251,0.554,0.404l-0.776,0.928c-0.134-0.113-0.271-0.217-0.41-0.31
		c-0.14-0.093-0.285-0.171-0.438-0.234c-0.152-0.063-0.321-0.113-0.504-0.15c-0.184-0.036-0.385-0.055-0.604-0.055
		c-0.319,0-0.617,0.067-0.894,0.2c-0.275,0.134-0.516,0.312-0.719,0.535c-0.202,0.223-0.362,0.485-0.479,0.785
		c-0.116,0.3-0.176,0.616-0.176,0.95v0.019c0,0.36,0.058,0.694,0.17,1c0.111,0.307,0.272,0.57,0.481,0.79
		c0.209,0.22,0.458,0.393,0.747,0.52c0.288,0.126,0.611,0.19,0.971,0.19c0.331,0,0.642-0.049,0.931-0.146
		c0.288-0.097,0.539-0.225,0.751-0.386v-1.314h-1.785v-1.067h2.973v2.933c-0.173,0.146-0.363,0.286-0.572,0.419
		c-0.21,0.132-0.437,0.249-0.679,0.349c-0.243,0.099-0.505,0.177-0.783,0.234c-0.279,0.057-0.572,0.085-0.878,0.085
		c-0.546,0-1.041-0.091-1.486-0.274s-0.826-0.436-1.144-0.759c-0.315-0.322-0.561-0.701-0.732-1.137
		C26.497,35.396,26.411,34.922,26.411,34.409z M42.098,67.425c0,6.783-3.991,8.381-7.104,8.381H32.52v22.188h-5.507V44.839h7.98
		c3.112,0,7.104,1.596,7.104,8.38L42.098,67.425L42.098,67.425z M50.738,112.138l-0.929-0.949c-0.601,0.562-1.301,0.912-2.148,0.912
		c-1.3,0-2.279-0.791-2.279-2v-0.021c0-0.899,0.53-1.55,1.489-1.959c-0.399-0.511-0.579-0.949-0.579-1.459v-0.021
		c0-0.938,0.76-1.761,2.008-1.761c1.11,0,1.859,0.75,1.859,1.688v0.021c0,0.92-0.609,1.472-1.539,1.819l1.199,1.22
		c0.271-0.399,0.521-0.858,0.75-1.353l0.93,0.49c-0.279,0.562-0.59,1.11-0.95,1.602l1.101,1.117L50.738,112.138z M52.633,98.63
		c-4.31,0-7.661-3.671-7.661-9.099V44.839h5.507v45.172c0,1.836,0.798,2.793,2.234,2.793c1.517,0,2.313-0.957,2.313-2.793V44.839
		h5.268v44.693C60.294,94.959,56.942,98.63,52.633,98.63z M63.547,107.362c0,1.568-1.259,2.39-2.798,2.39h-1.39V112H58.13v-6.997
		h2.76c1.629,0,2.657,0.93,2.657,2.339V107.362z M63.772,30.897h3.111c0.44,0,0.829,0.062,1.168,0.185
		c0.34,0.123,0.622,0.294,0.849,0.514c0.187,0.193,0.33,0.415,0.43,0.668c0.101,0.253,0.149,0.532,0.149,0.838v0.02
		c0,0.286-0.041,0.544-0.124,0.773c-0.084,0.23-0.198,0.433-0.346,0.609c-0.146,0.176-0.32,0.326-0.523,0.449
		c-0.202,0.123-0.427,0.218-0.673,0.284l1.886,2.644h-1.446l-1.723-2.435H66.51h-1.52v2.435h-1.219L63.772,30.897L63.772,30.897z
		 M70.547,112l-0.709-1.688H66.53L65.81,112h-1.26l3.078-7.046h1.14L71.846,112H70.547z M64.205,97.993V44.839h8.061
		c3.112,0,7.023,1.596,7.023,8.379v11.653c0,2.873-0.958,4.868-3.112,6.065c2.154,1.278,3.112,3.272,3.112,6.067V89.61
		c0,6.783-3.911,8.383-7.023,8.383H64.205z M78.559,112l-1.721-2.438H75.3V112h-1.229v-6.997h3.118c0.88,0,1.568,0.26,2.021,0.7
		c0.37,0.38,0.58,0.899,0.58,1.509v0.02c0,1.149-0.689,1.84-1.669,2.119L80.008,112H78.559z M87.407,106.144h-2.22V112h-1.238
		v-5.856h-2.22v-1.141h5.678V106.144z M95.868,112h-1.03l-3.857-4.978V112h-1.209v-6.997h1.14l3.748,4.838v-4.838h1.21L95.868,112
		L95.868,112z M98.124,44.839h5.586v53.153h-5.586V44.839z M104.368,112h-5.237v-6.997h5.188v1.1h-3.958v1.819h3.509v1.099h-3.509
		v1.879h4.009L104.368,112L104.368,112z M112.159,111.999l-1.72-2.438h-1.54V112h-1.229v-6.997h3.118c0.88,0,1.568,0.26,2.021,0.7
		c0.368,0.38,0.579,0.899,0.579,1.509v0.02c0,1.149-0.688,1.84-1.67,2.119l1.89,2.648H112.159z M121.847,110.011
		c0,1.309-1.029,2.09-2.498,2.09c-1.071,0-2.078-0.371-2.919-1.121l0.738-0.879c0.67,0.58,1.34,0.909,2.209,0.909
		c0.761,0,1.239-0.35,1.239-0.88v-0.021c0-0.5-0.279-0.769-1.579-1.066c-1.489-0.359-2.328-0.801-2.328-2.09v-0.021
		c0-1.199,0.999-2.029,2.39-2.029c1.021,0,1.829,0.312,2.538,0.881l-0.658,0.931c-0.631-0.471-1.262-0.721-1.899-0.721
		c-0.721,0-1.141,0.368-1.141,0.829v0.021c0,0.54,0.319,0.78,1.659,1.1c1.479,0.36,2.249,0.892,2.249,2.05V110.011z M122.545,63.435
		h-4.709V52.74c0-1.516-0.798-2.713-2.395-2.713c-1.677,0-2.476,1.197-2.476,2.713v37.351c0,1.516,0.799,2.713,2.476,2.713
		c1.597,0,2.395-1.197,2.395-2.713V79.315h4.709v10.217c0,5.427-2.793,9.098-7.263,9.098c-4.312,0-7.901-3.671-7.901-9.099V53.299
		c0-5.347,3.592-9.098,7.901-9.098c4.47,0,7.263,3.751,7.263,9.098V63.435z"/>
	<polygon fill="#001871" points="76.004,32.315 74.807,35.108 77.211,35.108 	"/>
</g>
</svg>
