<?xml version="1.0" encoding="utf-8"?>
<!-- Generator: Adobe Illustrator 16.0.0, SVG Export Plug-In . SVG Version: 6.00 Build 0)  -->
<!DOCTYPE svg PUBLIC "-//W3C//DTD SVG 1.1//EN" "http://www.w3.org/Graphics/SVG/1.1/DTD/svg11.dtd">
<svg version="1.1" id="Layer_1" xmlns="http://www.w3.org/2000/svg" xmlns:xlink="http://www.w3.org/1999/xlink" x="0px" y="0px"
	 width="150.403px" height="142.424px" viewBox="0 0 150.403 142.424" enable-background="new 0 0 150.403 142.424"
	 xml:space="preserve">
<g>
	<defs>
		<rect id="SVGID_1_" y="0" width="150.403" height="142.423"/>
	</defs>
	<clipPath id="SVGID_2_">
		<use xlink:href="#SVGID_1_"  overflow="visible"/>
	</clipPath>
	<path clip-path="url(#SVGID_2_)" fill="#707373" d="M127.678,142.424H22.724C10.194,142.424,0,132.229,0,119.699V22.724
		C0,10.194,10.194,0,22.724,0h104.954c12.53,0,22.725,10.194,22.725,22.724v96.975C150.402,132.229,140.208,142.424,127.678,142.424
		"/>
	<path clip-path="url(#SVGID_2_)" fill="#FFFFFF" d="M34.995,75.805h-2.474v22.188h-5.507V44.839h7.981
		c3.113,0,7.103,1.596,7.103,8.38v14.206C42.098,74.208,38.107,75.805,34.995,75.805 M36.59,53.059c0-1.836-0.638-2.554-1.676-2.554
		h-2.394v20.032h2.394c1.038,0,1.676-0.798,1.676-2.554V53.059z"/>
	<path clip-path="url(#SVGID_2_)" fill="#FFFFFF" d="M52.633,98.63c-4.31,0-7.662-3.671-7.662-9.099V44.839h5.507v45.172
		c0,1.836,0.798,2.793,2.235,2.793c1.516,0,2.314-0.957,2.314-2.793V44.839h5.267v44.693C60.294,94.959,56.942,98.63,52.633,98.63"
		/>
	<path clip-path="url(#SVGID_2_)" fill="#FFFFFF" d="M72.265,97.993h-8.06V44.839h8.06c3.113,0,7.024,1.596,7.024,8.379v11.653
		c0,2.873-0.958,4.868-3.112,6.065c2.154,1.278,3.112,3.272,3.112,6.067v12.608C79.289,96.394,75.378,97.993,72.265,97.993
		 M73.861,53.06c0-1.836-0.718-2.554-1.755-2.554h-2.315v17.957h2.075c1.197,0,1.995-0.957,1.995-2.793V53.06z M73.861,76.364
		c0-1.756-0.798-2.793-1.995-2.793h-2.075v18.834h2.315c1.037,0,1.755-0.799,1.755-2.634V76.364z"/>
	<polygon clip-path="url(#SVGID_2_)" fill="#FFFFFF" points="82.88,97.993 82.88,44.839 88.387,44.839 88.387,92.484 95.41,92.484 
		95.41,97.993 	"/>
	<rect x="98.124" y="44.839" clip-path="url(#SVGID_2_)" fill="#FFFFFF" width="5.586" height="53.153"/>
	<path clip-path="url(#SVGID_2_)" fill="#FFFFFF" d="M115.282,98.63c-4.311,0-7.901-3.671-7.901-9.099V53.299
		c0-5.347,3.591-9.098,7.901-9.098c4.47,0,7.263,3.751,7.263,9.098v10.136h-4.709V52.74c0-1.516-0.798-2.713-2.394-2.713
		c-1.677,0-2.475,1.197-2.475,2.713v37.351c0,1.516,0.798,2.713,2.475,2.713c1.596,0,2.394-1.197,2.394-2.713V79.315h4.709v10.217
		C122.545,94.959,119.752,98.63,115.282,98.63"/>
	<path clip-path="url(#SVGID_2_)" fill="#FFFFFF" d="M30.032,38.001c-0.545,0-1.041-0.091-1.486-0.274
		c-0.446-0.183-0.827-0.436-1.143-0.759c-0.316-0.322-0.56-0.701-0.733-1.137c-0.173-0.435-0.259-0.909-0.259-1.422V34.39
		c0-0.486,0.088-0.948,0.266-1.388c0.178-0.438,0.427-0.822,0.748-1.151s0.703-0.591,1.146-0.784
		c0.442-0.192,0.925-0.289,1.451-0.289c0.306,0,0.584,0.022,0.833,0.065s0.48,0.105,0.694,0.184c0.212,0.08,0.413,0.179,0.603,0.295
		c0.19,0.116,0.374,0.251,0.553,0.404l-0.777,0.928c-0.133-0.113-0.27-0.217-0.41-0.31c-0.139-0.093-0.285-0.171-0.438-0.234
		c-0.153-0.063-0.321-0.113-0.504-0.15c-0.183-0.036-0.384-0.055-0.604-0.055c-0.319,0-0.617,0.067-0.893,0.2
		c-0.276,0.134-0.515,0.312-0.718,0.535s-0.363,0.485-0.478,0.785c-0.117,0.3-0.176,0.616-0.176,0.95v0.019
		c0,0.36,0.057,0.694,0.17,1c0.112,0.307,0.273,0.57,0.482,0.79c0.209,0.22,0.458,0.393,0.747,0.52
		c0.288,0.126,0.612,0.19,0.97,0.19c0.331,0,0.642-0.049,0.931-0.146c0.288-0.097,0.539-0.225,0.751-0.386v-1.314h-1.786v-1.067
		h2.973v2.933c-0.173,0.146-0.364,0.286-0.573,0.419c-0.21,0.132-0.436,0.249-0.678,0.349c-0.244,0.099-0.505,0.177-0.784,0.234
		C30.631,37.973,30.338,38.001,30.032,38.001"/>
	<polygon clip-path="url(#SVGID_2_)" fill="#FFFFFF" points="36.537,30.897 41.705,30.897 41.705,32.004 37.754,32.004 
		37.754,33.801 41.255,33.801 41.255,34.909 37.754,34.909 37.754,36.773 41.754,36.773 41.754,37.882 36.537,37.882 	"/>
	<polygon clip-path="url(#SVGID_2_)" fill="#FFFFFF" points="45.216,30.897 46.352,30.897 50.085,35.727 50.085,30.897 
		51.302,30.897 51.302,37.882 50.276,37.882 46.434,32.914 46.434,37.882 45.216,37.882 	"/>
	<polygon clip-path="url(#SVGID_2_)" fill="#FFFFFF" points="55.093,30.897 60.26,30.897 60.26,32.004 56.311,32.004 56.311,33.801 
		59.812,33.801 59.812,34.909 56.311,34.909 56.311,36.773 60.311,36.773 60.311,37.882 55.093,37.882 	"/>
	<path clip-path="url(#SVGID_2_)" fill="#FFFFFF" d="M63.772,30.897h3.112c0.44,0,0.829,0.062,1.168,0.185
		c0.339,0.123,0.622,0.294,0.848,0.514c0.186,0.193,0.33,0.415,0.429,0.668c0.1,0.253,0.15,0.532,0.15,0.838v0.02
		c0,0.286-0.041,0.544-0.124,0.773c-0.084,0.23-0.199,0.433-0.345,0.609c-0.146,0.176-0.321,0.326-0.524,0.449
		c-0.203,0.123-0.427,0.218-0.673,0.284l1.885,2.644h-1.446l-1.722-2.435h-0.02h-1.52v2.435h-1.218V30.897z M66.792,34.359
		c0.44,0,0.79-0.105,1.051-0.315c0.26-0.211,0.39-0.496,0.39-0.857v-0.02c0-0.381-0.127-0.669-0.381-0.867
		c-0.253-0.197-0.61-0.295-1.071-0.295h-1.79v2.354H66.792z"/>
	<path clip-path="url(#SVGID_2_)" fill="#FFFFFF" d="M75.455,30.848h1.138l3.072,7.033h-1.297l-0.708-1.686h-3.302l-0.719,1.686
		h-1.257L75.455,30.848z M77.211,35.108l-1.207-2.793l-1.197,2.793H77.211z"/>
	<polygon clip-path="url(#SVGID_2_)" fill="#FFFFFF" points="82.857,30.897 84.074,30.897 84.074,36.773 87.745,36.773 
		87.745,37.882 82.857,37.882 	"/>
	<path clip-path="url(#SVGID_2_)" fill="#FFFFFF" d="M49.809,111.189c-0.6,0.561-1.3,0.911-2.149,0.911
		c-1.299,0-2.279-0.79-2.279-1.999v-0.021c0-0.899,0.53-1.55,1.489-1.959c-0.4-0.511-0.579-0.949-0.579-1.459v-0.02
		c0-0.939,0.76-1.76,2.008-1.76c1.11,0,1.859,0.75,1.859,1.688v0.021c0,0.92-0.609,1.47-1.539,1.819l1.2,1.22
		c0.27-0.401,0.52-0.86,0.75-1.351l0.929,0.49c-0.28,0.561-0.59,1.11-0.95,1.6l1.1,1.118l-0.91,0.651L49.809,111.189z
		 M49.109,110.47l-1.559-1.589c-0.649,0.28-0.93,0.71-0.93,1.159v0.021c0,0.589,0.49,1.02,1.17,1.02
		C48.27,111.081,48.709,110.85,49.109,110.47 M49.069,106.663v-0.02c0-0.47-0.329-0.79-0.799-0.79c-0.5,0-0.83,0.349-0.83,0.839
		v0.021c0,0.35,0.14,0.609,0.53,1.04C48.689,107.492,49.069,107.163,49.069,106.663"/>
	<path clip-path="url(#SVGID_2_)" fill="#FFFFFF" d="M58.13,105.003h2.759c1.629,0,2.658,0.93,2.658,2.339v0.02
		c0,1.569-1.259,2.39-2.798,2.39H59.36V112h-1.23V105.003z M60.789,108.642c0.929,0,1.509-0.521,1.509-1.25v-0.02
		c0-0.819-0.59-1.25-1.509-1.25H59.36v2.52H60.789z"/>
	<path clip-path="url(#SVGID_2_)" fill="#FFFFFF" d="M67.629,104.954h1.139L71.846,112h-1.299l-0.709-1.688H66.53L65.81,112h-1.259
		L67.629,104.954z M69.388,109.221l-1.21-2.799l-1.199,2.799H69.388z"/>
	<path clip-path="url(#SVGID_2_)" fill="#FFFFFF" d="M74.071,105.003h3.118c0.88,0,1.569,0.26,2.02,0.7
		c0.37,0.38,0.58,0.899,0.58,1.509v0.019c0,1.15-0.69,1.84-1.669,2.12L80.008,112h-1.449l-1.72-2.438H75.3V112h-1.229V105.003z
		 M77.099,108.472c0.88,0,1.44-0.46,1.44-1.17v-0.021c0-0.75-0.541-1.159-1.45-1.159H75.3v2.35H77.099z"/>
	<polygon clip-path="url(#SVGID_2_)" fill="#FFFFFF" points="83.949,106.143 81.73,106.143 81.73,105.003 87.407,105.003 
		87.407,106.143 85.188,106.143 85.188,112 83.949,112 	"/>
	<polygon clip-path="url(#SVGID_2_)" fill="#FFFFFF" points="89.771,105.003 90.91,105.003 94.658,109.841 94.658,105.003 
		95.868,105.003 95.868,112 94.838,112 90.98,107.022 90.98,112 89.771,112 	"/>
	<polygon clip-path="url(#SVGID_2_)" fill="#FFFFFF" points="99.131,105.003 104.318,105.003 104.318,106.103 100.36,106.103 
		100.36,107.922 103.868,107.922 103.868,109.021 100.36,109.021 100.36,110.899 104.368,110.899 104.368,112 99.131,112 	"/>
	<path clip-path="url(#SVGID_2_)" fill="#FFFFFF" d="M107.671,105.003h3.118c0.88,0,1.569,0.26,2.02,0.7
		c0.369,0.38,0.579,0.899,0.579,1.509v0.019c0,1.15-0.689,1.84-1.669,2.12l1.889,2.648h-1.449l-1.719-2.438H108.9V112h-1.229
		V105.003z M110.699,108.472c0.88,0,1.439-0.46,1.439-1.17v-0.021c0-0.75-0.54-1.159-1.449-1.159H108.9v2.35H110.699z"/>
	<path clip-path="url(#SVGID_2_)" fill="#FFFFFF" d="M116.43,110.979l0.739-0.878c0.67,0.579,1.34,0.909,2.209,0.909
		c0.76,0,1.239-0.35,1.239-0.88v-0.021c0-0.5-0.279-0.769-1.579-1.068c-1.489-0.36-2.328-0.801-2.328-2.09v-0.02
		c0-1.2,0.999-2.029,2.389-2.029c1.02,0,1.829,0.311,2.538,0.879l-0.658,0.931c-0.631-0.471-1.261-0.721-1.9-0.721
		c-0.72,0-1.14,0.37-1.14,0.83v0.021c0,0.54,0.32,0.78,1.659,1.099c1.479,0.361,2.249,0.891,2.249,2.049v0.021
		c0,1.308-1.029,2.089-2.498,2.089C118.278,112.1,117.271,111.729,116.43,110.979"/>
</g>
</svg>
